<svg width="32" height="25" viewBox="0 0 32 25" fill="none" xmlns="http://www.w3.org/2000/svg">
<path d="M20.5333 0C20.2161 0.568116 19.9334 1.15483 19.6868 1.75696C17.2634 1.3737 14.7948 1.3737 12.3715 1.75696C12.1248 1.15483 11.8421 0.568116 11.5249 0C9.24215 0.390046 7.02298 1.08857 4.92836 2.0764C1.18275 7.4819 -0.515908 14.0444 0.136662 20.5883C2.57761 22.4233 5.31722 23.8229 8.23463 24.7252C8.89894 23.8477 9.49182 22.9183 10.0076 21.946C9.05573 21.595 8.14087 21.151 7.27629 20.6203C7.51342 20.4625 7.73773 20.2863 7.94713 20.0932C10.4683 21.3076 13.2307 21.9382 16.0291 21.9382C18.8275 21.9382 21.59 21.3076 24.1111 20.0932C24.3347 20.2849 24.5584 20.4606 24.782 20.6203C23.9127 21.1468 22.9987 21.5958 22.0507 21.962C22.545 22.9563 23.1221 23.9073 23.7757 24.805C26.6895 23.9058 29.4243 22.506 31.8577 20.6682C32.5259 14.1231 30.8259 7.5552 27.066 2.15626C24.9949 1.14799 22.7977 0.42274 20.5333 0ZM10.7263 16.8508C9.92703 16.7934 9.18106 16.4286 8.64499 15.833C8.10893 15.2374 7.82446 14.4572 7.8513 13.6563C7.82041 12.8544 8.10348 12.072 8.64035 11.4755C9.17722 10.879 9.92556 10.5153 10.7263 10.4619C11.5271 10.5153 12.2754 10.879 12.8123 11.4755C13.3492 12.072 13.6322 12.8544 13.6013 13.6563C13.6322 14.4583 13.3492 15.2407 12.8123 15.8372C12.2754 16.4337 11.5271 16.7973 10.7263 16.8508ZM21.3319 16.8508C20.5327 16.7934 19.7867 16.4286 19.2506 15.833C18.7146 15.2374 18.4301 14.4572 18.4569 13.6563C18.426 12.8544 18.7091 12.072 19.246 11.4755C19.7828 10.879 20.5312 10.5153 21.3319 10.4619C22.1342 10.5113 22.8849 10.8738 23.4226 11.4712C23.9603 12.0687 24.242 12.8533 24.207 13.6563C24.242 14.4593 23.9603 15.244 23.4226 15.8414C22.8849 16.4389 22.1342 16.8013 21.3319 16.8508Z" fill="white"/>
</svg>
