<svg width="174" height="90" viewBox="0 0 174 90" fill="none" xmlns="http://www.w3.org/2000/svg">
<g filter="url(#filter0_d_363_3216)">
<path d="M37.9908 22.06C39.4441 22.06 40.6574 22.2333 41.6308 22.58C42.6041 22.9267 43.3774 23.4 43.9508 24C44.5374 24.5867 44.9508 25.2667 45.1908 26.04C45.4441 26.8133 45.5708 27.6267 45.5708 28.48C45.5708 29.3333 45.4308 30.1533 45.1508 30.94C44.8841 31.7267 44.4508 32.4267 43.8508 33.04C43.2641 33.64 42.4841 34.12 41.5108 34.48C40.5508 34.8267 39.3774 35 37.9908 35H30.5908V22.06H37.9908ZM33.2508 32.72H37.9308C38.8908 32.72 39.6841 32.6067 40.3108 32.38C40.9508 32.14 41.4574 31.82 41.8308 31.42C42.2041 31.02 42.4708 30.5667 42.6308 30.06C42.7908 29.5533 42.8708 29.0267 42.8708 28.48C42.8708 27.9333 42.7908 27.4133 42.6308 26.92C42.4708 26.4267 42.2041 25.9867 41.8308 25.6C41.4574 25.2133 40.9508 24.9067 40.3108 24.68C39.6841 24.4533 38.8908 24.34 37.9308 24.34H33.2508V32.72ZM48.5489 22.06H51.2089V35H48.5489V22.06ZM56.6733 32.18V29.96H65.2333V32.18H56.6733ZM53.4533 35L59.5333 22.06H62.4133L68.5533 35H65.6533L60.3333 23.34H61.6133L56.3333 35H53.4533ZM80.4945 33.68H79.2345L86.6745 22.06H89.3345V35H86.6745V25.6L87.3145 25.78L81.3745 35H78.3945L72.4545 25.82L73.0945 25.64V35H70.4345V22.06H73.0945L80.4945 33.68ZM100.107 35.26C98.3872 35.26 96.9139 34.9933 95.6872 34.46C94.4739 33.9133 93.5405 33.14 92.8872 32.14C92.2472 31.14 91.9272 29.94 91.9272 28.54C91.9272 27.1267 92.2472 25.92 92.8872 24.92C93.5405 23.92 94.4739 23.1533 95.6872 22.62C96.9139 22.0733 98.3872 21.8 100.107 21.8C101.841 21.8 103.314 22.0733 104.527 22.62C105.741 23.1533 106.667 23.92 107.307 24.92C107.961 25.92 108.287 27.1267 108.287 28.54C108.287 29.94 107.961 31.14 107.307 32.14C106.667 33.14 105.741 33.9133 104.527 34.46C103.314 34.9933 101.841 35.26 100.107 35.26ZM100.107 32.96C101.174 32.96 102.107 32.8 102.907 32.48C103.721 32.16 104.354 31.6733 104.807 31.02C105.274 30.3667 105.507 29.54 105.507 28.54C105.507 27.54 105.274 26.7133 104.807 26.06C104.354 25.4067 103.721 24.92 102.907 24.6C102.107 24.2667 101.174 24.1 100.107 24.1C99.0539 24.1 98.1139 24.2667 97.2872 24.6C96.4605 24.92 95.8139 25.4067 95.3472 26.06C94.8805 26.7133 94.6472 27.54 94.6472 28.54C94.6472 29.54 94.8805 30.3667 95.3472 31.02C95.8139 31.6733 96.4605 32.16 97.2872 32.48C98.1139 32.8 99.0539 32.96 100.107 32.96ZM124.004 32.36L123.164 32.7V22.06H125.824V35H123.164L112.704 24.78L113.544 24.44V35H110.884V22.06H113.544L124.004 32.36ZM136.311 22.06C137.764 22.06 138.978 22.2333 139.951 22.58C140.924 22.9267 141.698 23.4 142.271 24C142.858 24.5867 143.271 25.2667 143.511 26.04C143.764 26.8133 143.891 27.6267 143.891 28.48C143.891 29.3333 143.751 30.1533 143.471 30.94C143.204 31.7267 142.771 32.4267 142.171 33.04C141.584 33.64 140.804 34.12 139.831 34.48C138.871 34.8267 137.698 35 136.311 35H128.911V22.06H136.311ZM131.571 32.72H136.251C137.211 32.72 138.004 32.6067 138.631 32.38C139.271 32.14 139.778 31.82 140.151 31.42C140.524 31.02 140.791 30.5667 140.951 30.06C141.111 29.5533 141.191 29.0267 141.191 28.48C141.191 27.9333 141.111 27.4133 140.951 26.92C140.791 26.4267 140.524 25.9867 140.151 25.6C139.778 25.2133 139.271 24.9067 138.631 24.68C138.004 24.4533 137.211 24.34 136.251 24.34H131.571V32.72ZM55.581 59V46.06H64.361C65.361 46.06 66.2277 46.2 66.961 46.48C67.7077 46.7467 68.2877 47.1733 68.701 47.76C69.1144 48.3333 69.321 49.0733 69.321 49.98C69.321 50.5933 69.2143 51.1133 69.001 51.54C68.7877 51.9667 68.4877 52.3133 68.101 52.58C67.7277 52.8467 67.2943 53.0533 66.801 53.2C66.3077 53.3333 65.781 53.42 65.221 53.46L64.941 53.3C65.8743 53.3133 66.641 53.3933 67.241 53.54C67.841 53.6733 68.2877 53.9267 68.581 54.3C68.8877 54.66 69.041 55.2 69.041 55.92V59H66.381V56.1C66.381 55.6067 66.2943 55.2267 66.121 54.96C65.9477 54.68 65.6343 54.4867 65.181 54.38C64.741 54.2733 64.101 54.22 63.261 54.22H58.241V59H55.581ZM58.241 52.14H64.361C65.1077 52.14 65.6743 51.96 66.061 51.6C66.461 51.24 66.661 50.7533 66.661 50.14C66.661 49.5533 66.461 49.1067 66.061 48.8C65.6743 48.4933 65.1077 48.34 64.361 48.34H58.241V52.14ZM83.9845 53.28V46.06H86.6445V53.56C86.6445 54.4133 86.5178 55.16 86.2645 55.8C86.0245 56.44 85.6778 56.98 85.2245 57.42C84.7711 57.86 84.2378 58.22 83.6245 58.5C83.0245 58.7667 82.3645 58.96 81.6445 59.08C80.9378 59.2 80.1911 59.26 79.4045 59.26C78.5911 59.26 77.8178 59.2 77.0845 59.08C76.3511 58.96 75.6778 58.7667 75.0645 58.5C74.4645 58.22 73.9445 57.86 73.5045 57.42C73.0645 56.98 72.7178 56.44 72.4645 55.8C72.2245 55.16 72.1045 54.4133 72.1045 53.56V46.06H74.7645V53.28C74.7645 54.2933 74.9645 55.0667 75.3645 55.6C75.7645 56.12 76.3111 56.48 77.0045 56.68C77.7111 56.8667 78.5111 56.96 79.4045 56.96C80.2711 56.96 81.0445 56.8667 81.7245 56.68C82.4178 56.48 82.9645 56.12 83.3645 55.6C83.7778 55.0667 83.9845 54.2933 83.9845 53.28ZM88.8616 54.64H91.5616C91.615 55.0933 91.8216 55.5067 92.1816 55.88C92.555 56.24 93.0416 56.5267 93.6416 56.74C94.2416 56.94 94.915 57.04 95.6616 57.04C96.3416 57.04 96.9016 56.9667 97.3416 56.82C97.7816 56.6733 98.1083 56.4667 98.3216 56.2C98.535 55.9333 98.6416 55.6133 98.6416 55.24C98.6416 54.88 98.5083 54.6067 98.2416 54.42C97.975 54.22 97.555 54.06 96.9816 53.94C96.4083 53.8067 95.655 53.6733 94.7216 53.54C93.9883 53.4333 93.295 53.2867 92.6416 53.1C91.9883 52.9 91.4083 52.6467 90.9016 52.34C90.4083 52.0333 90.015 51.66 89.7216 51.22C89.4416 50.7667 89.3016 50.2333 89.3016 49.62C89.3016 48.86 89.515 48.1933 89.9416 47.62C90.3816 47.0467 91.0283 46.6 91.8816 46.28C92.735 45.96 93.7816 45.8 95.0216 45.8C96.8883 45.8 98.3216 46.2 99.3216 47C100.335 47.7867 100.828 48.8733 100.802 50.26H98.2016C98.1483 49.4733 97.815 48.9067 97.2016 48.56C96.6016 48.2133 95.8416 48.04 94.9216 48.04C94.0683 48.04 93.3616 48.1667 92.8016 48.42C92.255 48.6733 91.9816 49.1067 91.9816 49.72C91.9816 49.96 92.0483 50.1733 92.1816 50.36C92.315 50.5333 92.5416 50.6867 92.8616 50.82C93.1816 50.9533 93.615 51.08 94.1616 51.2C94.7083 51.32 95.3883 51.44 96.2016 51.56C96.9616 51.6667 97.6483 51.8133 98.2616 52C98.8883 52.1733 99.4216 52.4067 99.8616 52.7C100.315 52.98 100.662 53.34 100.902 53.78C101.142 54.22 101.262 54.76 101.262 55.4C101.262 56.1867 101.055 56.8733 100.642 57.46C100.242 58.0333 99.615 58.48 98.7616 58.8C97.9216 59.12 96.8283 59.28 95.4816 59.28C94.5216 59.28 93.675 59.18 92.9416 58.98C92.2083 58.7667 91.575 58.4867 91.0416 58.14C90.5083 57.7933 90.075 57.4133 89.7416 57C89.4083 56.5867 89.1683 56.1733 89.0216 55.76C88.8883 55.3467 88.835 54.9733 88.8616 54.64ZM105.948 51.4H116.208V53.62H105.948V51.4ZM115.768 46.06H118.428V59H115.768V46.06ZM103.608 46.06H106.268V59H103.608V46.06Z" fill="white"/>
</g>
<defs>
<filter id="filter0_d_363_3216" x="0.59082" y="-8.19922" width="173.3" height="97.4785" filterUnits="userSpaceOnUse" color-interpolation-filters="sRGB">
<feFlood flood-opacity="0" result="BackgroundImageFix"/>
<feColorMatrix in="SourceAlpha" type="matrix" values="0 0 0 0 0 0 0 0 0 0 0 0 0 0 0 0 0 0 127 0" result="hardAlpha"/>
<feOffset/>
<feGaussianBlur stdDeviation="15"/>
<feComposite in2="hardAlpha" operator="out"/>
<feColorMatrix type="matrix" values="0 0 0 0 0.191667 0 0 0 0 0.9515 0 0 0 0 1 0 0 0 1 0"/>
<feBlend mode="normal" in2="BackgroundImageFix" result="effect1_dropShadow_363_3216"/>
<feBlend mode="normal" in="SourceGraphic" in2="effect1_dropShadow_363_3216" result="shape"/>
</filter>
</defs>
</svg>
