<svg width="28" height="23" viewBox="0 0 28 23" fill="none" xmlns="http://www.w3.org/2000/svg">
<path d="M27.9466 2.9987C26.9199 3.46536 25.8132 3.77203 24.6666 3.9187C25.8399 3.21203 26.7466 2.09203 27.1732 0.745365C26.0666 1.41203 24.8399 1.8787 23.5466 2.14536C22.4932 0.998698 21.0132 0.332031 19.3332 0.332031C16.1999 0.332031 13.6399 2.89203 13.6399 6.05203C13.6399 6.50536 13.6932 6.94537 13.7866 7.3587C9.03989 7.1187 4.81322 4.8387 1.99989 1.38536C1.50656 2.22536 1.22656 3.21203 1.22656 4.25203C1.22656 6.2387 2.22656 7.9987 3.77322 8.9987C2.82656 8.9987 1.94656 8.73203 1.17322 8.33203V8.37203C1.17322 11.1454 3.14656 13.4654 5.75989 13.9854C4.92086 14.215 4.04002 14.2469 3.18656 14.0787C3.5487 15.2153 4.25794 16.2099 5.21458 16.9226C6.17122 17.6353 7.32715 18.0303 8.51989 18.052C6.49806 19.6526 3.99188 20.5178 1.41322 20.5054C0.959889 20.5054 0.506556 20.4787 0.0532227 20.4254C2.58656 22.052 5.59989 22.9987 8.82656 22.9987C19.3332 22.9987 25.1066 14.2787 25.1066 6.7187C25.1066 6.46536 25.1066 6.22536 25.0932 5.97203C26.2132 5.17203 27.1732 4.1587 27.9466 2.9987Z" fill="white"/>
</svg>
