<svg width="32" height="24" viewBox="0 0 32 24" fill="none" xmlns="http://www.w3.org/2000/svg">
<path d="M16.102 0.996094H16.28C17.924 1.00209 26.254 1.06209 28.5 1.66609C29.179 1.85043 29.7977 2.20974 30.2943 2.70811C30.7909 3.20648 31.1481 3.82646 31.33 4.50609C31.532 5.26609 31.674 6.27209 31.77 7.31009L31.79 7.51809L31.834 8.03809L31.85 8.24609C31.98 10.0741 31.996 11.7861 31.998 12.1601V12.3101C31.996 12.6981 31.978 14.5261 31.834 16.4301L31.818 16.6401L31.8 16.8481C31.7 17.9921 31.552 19.1281 31.33 19.9641C31.1486 20.644 30.7917 21.2643 30.295 21.7627C29.7983 22.2612 29.1793 22.6203 28.5 22.8041C26.18 23.4281 17.362 23.4721 16.14 23.4741H15.856C15.238 23.4741 12.682 23.4621 10.002 23.3701L9.662 23.3581L9.488 23.3501L9.146 23.3361L8.804 23.3221C6.584 23.2241 4.47 23.0661 3.496 22.8021C2.81698 22.6185 2.19813 22.2597 1.70145 21.7616C1.20477 21.2635 0.847694 20.6436 0.666 19.9641C0.444 19.1301 0.296 17.9921 0.196 16.8481L0.18 16.6381L0.164 16.4301C0.0652952 15.0749 0.0105997 13.7168 0 12.3581L0 12.1121C0.004 11.6821 0.02 10.1961 0.128 8.55609L0.142 8.35009L0.148 8.24609L0.164 8.03809L0.208 7.51809L0.228 7.31009C0.324 6.27209 0.466 5.26409 0.668 4.50609C0.849387 3.82619 1.20632 3.20592 1.70303 2.70746C2.19973 2.209 2.81874 1.84988 3.498 1.66609C4.472 1.40609 6.586 1.24609 8.806 1.14609L9.146 1.13209L9.49 1.12009L9.662 1.11409L10.004 1.10009C11.9074 1.03884 13.8116 1.00484 15.716 0.998094H16.102V0.996094ZM12.8 7.41609V17.0521L21.114 12.2361L12.8 7.41609Z" fill="white"/>
</svg>
