<?xml version="1.0" standalone="no"?>
<!DOCTYPE svg PUBLIC "-//W3C//DTD SVG 20010904//EN"
 "http://www.w3.org/TR/2001/REC-SVG-20010904/DTD/svg10.dtd">
<svg version="1.0" xmlns="http://www.w3.org/2000/svg"
 width="1080.000000pt" height="1080.000000pt" viewBox="0 0 1080.000000 1080.000000"
 preserveAspectRatio="xMidYMid meet">
<metadata>
Created by potrace 1.14, written by Peter Selinger 2001-2017
</metadata>
<g transform="translate(0.000000,1080.000000) scale(0.100000,-0.100000)"
fill="#000000" stroke="none">
<path d="M1994 10366 c-37 -12 -88 -42 -121 -72 -6 -6 -62 -81 -123 -165 -61
-85 -116 -161 -123 -169 -7 -8 -23 -32 -37 -53 -14 -20 -28 -37 -32 -37 -5 0
-8 -7 -8 -15 0 -8 -4 -15 -9 -15 -5 0 -12 -8 -15 -17 -3 -10 -16 -30 -28 -45
-13 -15 -34 -43 -48 -63 -14 -20 -32 -44 -40 -55 -8 -10 -31 -42 -50 -70 -19
-28 -47 -65 -62 -83 -16 -17 -28 -37 -28 -44 0 -7 -4 -13 -10 -13 -5 0 -17
-15 -26 -32 -9 -18 -20 -35 -24 -38 -4 -3 -27 -33 -51 -67 -24 -34 -154 -213
-289 -399 -135 -185 -258 -356 -273 -378 -15 -23 -35 -49 -43 -59 -8 -10 -48
-64 -88 -120 -39 -56 -99 -138 -131 -182 -33 -44 -60 -82 -60 -85 0 -3 -8 -14
-17 -25 -41 -49 -88 -116 -88 -125 0 -6 -4 -10 -8 -10 -5 0 -17 -16 -28 -35
-10 -19 -21 -35 -25 -35 -13 0 -82 -112 -95 -156 -29 -96 -12 -195 49 -287 23
-34 48 -69 57 -77 8 -8 24 -28 33 -43 10 -16 25 -36 32 -45 8 -9 50 -66 95
-127 45 -60 86 -117 93 -125 7 -8 30 -40 52 -70 21 -30 42 -57 45 -60 3 -3 36
-48 74 -100 38 -52 73 -96 77 -98 5 -2 9 -7 9 -12 0 -7 128 -181 216 -295 8
-11 34 -46 57 -78 23 -32 53 -73 67 -91 114 -150 260 -347 260 -352 0 -3 10
-15 23 -28 12 -13 29 -33 37 -46 22 -33 109 -152 125 -172 8 -10 38 -50 67
-90 29 -40 55 -75 58 -78 3 -3 21 -27 40 -54 19 -27 45 -59 58 -73 12 -13 22
-30 22 -38 0 -7 4 -15 9 -17 5 -1 92 -115 194 -253 103 -137 190 -254 194
-260 5 -5 20 -26 33 -45 14 -19 30 -42 37 -50 24 -30 318 -426 336 -454 10
-15 27 -37 37 -49 10 -12 50 -65 89 -117 39 -52 74 -99 78 -105 5 -5 60 -80
123 -165 63 -85 118 -159 123 -165 4 -5 38 -50 74 -100 37 -49 71 -93 77 -97
7 -5 7 -8 1 -8 -6 0 -6 -3 1 -8 5 -4 37 -43 69 -87 33 -44 63 -84 68 -90 8
-11 195 -263 225 -304 9 -13 22 -29 27 -35 6 -6 31 -40 55 -76 25 -35 52 -72
60 -81 19 -23 41 -51 90 -119 21 -30 45 -62 53 -70 7 -8 42 -55 77 -105 35
-49 67 -92 70 -95 3 -3 30 -39 60 -80 30 -41 60 -82 67 -90 7 -8 33 -44 60
-80 26 -36 51 -66 55 -68 5 -2 8 -10 8 -17 0 -7 3 -15 8 -17 4 -2 32 -37 62
-78 30 -41 60 -81 67 -88 7 -7 20 -26 30 -42 9 -17 21 -30 25 -30 4 0 8 -5 8
-11 0 -6 6 -16 13 -23 6 -7 21 -25 32 -40 56 -78 121 -161 128 -164 4 -2 7 -9
7 -15 0 -7 13 -26 28 -44 15 -17 35 -42 44 -55 9 -12 60 -81 112 -151 53 -71
96 -132 96 -137 0 -5 4 -10 8 -12 5 -1 28 -30 53 -63 24 -33 47 -61 52 -63 4
-2 7 -10 7 -17 0 -7 3 -15 8 -17 8 -3 227 -297 256 -343 39 -63 103 -114 166
-133 39 -13 157 -4 197 14 62 27 88 59 403 489 24 33 48 65 52 70 26 33 95
125 168 225 46 63 88 120 92 125 5 6 22 28 38 50 17 22 37 49 46 60 8 11 40
54 70 95 30 41 60 82 67 90 7 8 30 40 52 70 22 30 43 56 47 58 5 2 8 8 8 14 0
5 6 15 12 22 7 7 22 25 33 41 11 15 44 58 73 96 28 38 52 72 52 75 0 3 6 11
13 19 8 7 54 68 103 135 49 66 124 167 166 223 92 122 120 159 158 212 16 22
35 47 42 55 7 9 27 36 43 60 17 24 37 52 45 61 23 25 50 59 50 63 0 3 92 129
180 246 11 14 87 117 171 230 84 113 166 224 183 247 17 23 40 53 50 68 11 14
30 38 43 53 13 15 23 30 23 34 0 4 6 13 13 20 7 7 35 43 62 81 27 37 53 67 59
67 5 0 7 3 3 6 -3 4 -1 12 6 19 7 7 19 23 27 35 8 12 22 30 30 40 15 19 69 91
394 530 92 124 172 232 179 240 7 8 30 40 52 70 22 30 43 57 47 58 5 2 8 10 8
17 0 7 7 16 16 19 9 4 14 9 11 12 -3 3 5 17 19 31 13 13 24 27 24 32 0 4 8 16
18 27 9 10 30 37 47 59 16 22 33 45 38 50 4 6 37 51 73 100 80 110 105 143
122 160 6 8 12 16 12 19 0 8 192 260 204 268 6 4 8 8 4 8 -7 0 11 25 40 55 6
8 12 18 12 24 0 5 6 14 13 18 6 4 28 31 47 58 36 52 56 78 77 100 7 8 13 16
13 19 0 5 87 123 100 136 3 3 16 22 30 42 14 21 28 38 33 38 4 0 7 4 7 10 0 5
7 18 15 27 8 10 118 158 245 328 127 171 237 318 245 328 8 9 15 20 15 23 0 3
9 16 20 28 11 11 56 71 100 131 44 61 87 118 95 128 8 9 15 21 15 26 0 5 4 11
8 13 5 2 28 30 53 63 24 33 46 62 49 65 3 3 10 12 15 21 6 9 22 34 36 55 35
54 50 117 45 194 -3 60 -33 146 -61 176 -5 6 -18 22 -27 35 -10 13 -39 53 -65
89 -26 36 -63 87 -82 115 -19 27 -38 54 -43 60 -5 5 -41 55 -80 110 -40 55
-76 102 -80 103 -4 2 -8 8 -8 13 0 10 -89 130 -105 141 -6 5 -6 8 0 8 6 0 6 3
-1 8 -5 4 -26 30 -45 57 -18 28 -36 52 -39 55 -3 3 -41 55 -85 115 -44 61 -83
112 -87 113 -4 2 -8 9 -8 16 0 7 -8 21 -18 32 -10 10 -43 55 -74 99 -32 44
-61 85 -65 90 -5 6 -19 26 -33 45 -13 19 -54 76 -90 125 -37 50 -67 94 -67 99
-1 5 -6 12 -11 15 -5 3 -37 44 -71 91 -33 47 -68 94 -76 105 -7 11 -31 43 -52
72 -21 28 -60 84 -88 123 -27 38 -58 80 -68 93 -11 12 -34 45 -53 72 -18 28
-45 63 -59 79 -14 16 -25 34 -25 39 0 6 -7 17 -15 26 -31 33 -95 121 -95 131
0 5 -4 10 -8 10 -4 0 -15 12 -24 28 -32 52 -96 112 -144 134 l-49 23 -3380 2
c-2723 1 -3388 -1 -3421 -11z m1463 -636 c0 -8 -3 -19 -7 -25 -4 -5 -31 -84
-59 -175 -29 -91 -56 -174 -61 -185 -5 -11 -75 -220 -155 -465 -81 -245 -151
-454 -155 -465 -7 -17 -20 -55 -25 -75 -13 -49 -19 -67 -25 -75 -4 -5 -11 -26
-15 -45 -4 -19 -11 -39 -15 -45 -6 -8 -11 -24 -25 -75 0 -3 -14 -43 -29 -90
l-28 -85 -974 0 c-536 0 -974 3 -974 7 0 4 7 14 16 22 8 9 13 16 10 16 -6 0
17 30 47 62 9 10 17 20 16 24 0 3 11 19 25 37 14 18 52 70 85 117 33 47 67 92
74 100 8 8 19 25 26 37 6 12 17 27 24 35 7 7 46 60 87 118 41 58 92 128 112
155 46 61 45 59 88 120 19 28 40 56 47 63 7 8 18 23 24 35 7 12 18 29 25 37
14 14 109 145 224 306 30 42 90 124 133 181 42 57 77 108 77 112 0 4 11 18 25
31 14 13 25 29 25 36 0 7 3 14 8 16 4 2 32 37 63 79 l57 75 614 0 c547 0 615
-2 615 -16z m3259 3 c1 -7 2 -15 3 -18 0 -3 1 -7 1 -10 0 -3 6 -18 14 -34 9
-16 12 -31 9 -35 -4 -3 -2 -6 4 -6 6 0 10 -6 9 -12 0 -7 50 -166 113 -352 62
-187 115 -346 116 -355 2 -9 4 -17 5 -18 2 -2 3 -6 5 -10 1 -5 7 -21 14 -38 7
-16 14 -37 16 -45 4 -19 63 -200 72 -220 3 -8 7 -20 8 -25 4 -17 47 -149 56
-170 24 -60 148 -450 143 -454 -6 -7 -3794 -7 -3804 -1 -5 3 28 113 72 245 44
132 81 245 82 250 2 6 6 18 10 27 4 9 8 22 10 30 1 7 4 18 7 23 4 6 10 24 14
40 10 35 10 35 18 55 3 8 27 78 52 155 25 77 48 147 52 155 3 8 7 20 8 25 1 6
3 13 5 18 1 4 3 10 4 15 1 4 10 32 21 62 10 30 20 60 21 65 4 15 55 168 64
190 5 11 39 112 75 225 37 113 71 213 76 222 9 16 97 17 1317 15 1037 -2 1307
-5 1308 -14z m1872 -3 c3 -8 8 -17 11 -20 9 -7 120 -158 207 -280 21 -30 42
-59 47 -65 4 -5 49 -66 98 -135 50 -69 117 -161 149 -205 33 -44 158 -217 280
-385 122 -168 228 -314 236 -325 8 -11 62 -85 120 -165 58 -80 113 -156 122
-169 9 -13 23 -29 29 -36 10 -10 10 -14 0 -17 -18 -5 -1936 -3 -1941 3 -6 6
-215 626 -222 659 -3 13 -10 30 -16 37 -6 7 -8 13 -5 13 4 0 -1 19 -9 43 -9
23 -17 49 -19 57 -7 24 -126 383 -135 405 -13 32 -52 146 -54 159 -1 6 -4 16
-7 21 -3 6 -12 33 -19 60 -7 28 -17 55 -21 61 -5 6 -10 19 -12 30 -2 10 -7 28
-11 39 -5 11 -14 37 -22 58 -8 20 -11 37 -8 37 3 0 2 6 -3 13 -4 6 -8 17 -9
22 -1 6 -9 29 -17 52 -9 22 -14 43 -12 45 3 2 282 4 621 3 540 0 618 -2 622
-15z m-5732 -2443 c5 -5 83 -222 89 -247 2 -8 4 -16 5 -17 3 -3 3 -3 15 -48 4
-16 11 -34 15 -40 9 -12 24 -67 22 -77 -1 -5 3 -8 10 -8 6 0 9 -3 5 -6 -3 -3
10 -49 29 -102 19 -54 35 -99 36 -102 1 -6 1 -8 37 -115 17 -49 69 -202 116
-340 112 -328 146 -427 150 -445 2 -8 11 -32 19 -52 9 -21 13 -38 10 -38 -4 0
-1 -6 5 -13 6 -8 12 -22 14 -33 2 -10 9 -32 16 -49 7 -16 15 -42 18 -58 3 -15
10 -30 14 -33 5 -3 7 -10 4 -15 -4 -5 -2 -9 2 -9 5 0 9 -8 10 -17 0 -14 95
-299 120 -363 3 -8 7 -19 9 -25 1 -5 8 -26 15 -45 16 -46 21 -63 25 -75 1 -5
10 -32 20 -60 24 -70 27 -79 29 -87 2 -5 3 -9 5 -10 1 -2 3 -10 5 -18 2 -8 20
-59 39 -112 19 -54 32 -98 29 -98 -3 0 -1 -6 4 -12 9 -11 43 -102 49 -130 1
-5 3 -10 4 -13 1 -3 3 -8 5 -12 1 -5 4 -15 7 -23 4 -8 9 -24 11 -35 3 -11 24
-72 47 -135 22 -63 43 -126 46 -140 3 -13 10 -30 16 -37 6 -7 7 -13 3 -13 -4
0 -2 -7 5 -15 7 -8 10 -15 7 -15 -3 0 8 -34 24 -77 15 -42 26 -80 24 -84 -3
-4 -1 -9 4 -11 6 -1 12 -14 14 -28 3 -14 10 -36 15 -50 12 -29 24 -64 23 -68
-1 -1 6 -19 15 -40 8 -20 17 -44 19 -52 3 -13 48 -152 62 -190 33 -89 166
-481 170 -500 3 -14 9 -29 13 -35 5 -5 10 -21 12 -35 1 -14 6 -27 9 -30 3 -3
14 -32 24 -65 10 -33 22 -71 28 -85 10 -25 15 -39 20 -62 1 -7 6 -19 11 -26 4
-7 6 -15 3 -18 -2 -2 -44 50 -93 117 -49 66 -94 126 -100 132 -20 23 -94 127
-94 132 0 3 -11 16 -25 29 -14 13 -25 26 -25 29 0 6 -83 119 -108 147 -7 8
-42 56 -77 105 -36 50 -74 101 -84 115 -89 113 -381 512 -381 520 0 6 -4 10
-8 10 -5 0 -25 24 -45 53 -20 29 -46 63 -57 75 -11 12 -17 22 -13 22 4 0 4 4
-2 8 -18 13 -85 100 -85 110 0 6 -4 12 -8 14 -5 2 -28 30 -52 63 -24 33 -47
62 -52 63 -4 2 -8 10 -8 17 0 7 -3 15 -8 17 -4 2 -38 46 -77 98 -38 52 -72 97
-75 100 -3 3 -27 34 -52 70 -26 36 -51 70 -56 75 -4 6 -19 26 -32 45 -14 19
-27 37 -30 40 -3 3 -18 23 -35 45 -16 22 -34 43 -39 47 -6 4 -7 8 -3 8 4 0 -2
10 -13 23 -12 12 -31 38 -43 57 -12 19 -28 41 -37 50 -8 9 -49 62 -90 118 -73
99 -160 217 -204 275 -11 16 -27 35 -33 42 -7 8 -13 16 -13 20 0 4 -6 12 -12
20 -24 24 -48 55 -48 61 0 5 -59 83 -71 94 -3 3 -21 28 -40 55 -18 28 -36 52
-40 55 -3 3 -60 79 -127 170 -67 91 -125 170 -130 175 -4 6 -48 64 -97 130
-144 195 -199 269 -208 280 -4 6 -53 71 -107 145 -55 74 -108 144 -117 156
-10 11 -34 43 -52 70 -19 27 -37 51 -40 54 -4 3 -10 12 -16 21 -15 24 -167
227 -192 258 -13 14 -23 29 -23 33 0 4 -6 13 -13 20 -32 32 -77 102 -68 107
11 7 1921 5 1927 -2z m4401 3 l51 0 -80 -232 c-86 -252 -97 -285 -103 -308 -2
-8 -11 -32 -19 -52 -9 -21 -13 -38 -10 -38 4 0 1 -6 -5 -13 -6 -8 -8 -17 -4
-20 3 -4 0 -7 -7 -7 -7 0 -10 -3 -7 -6 3 -4 2 -15 -4 -26 -6 -11 -12 -28 -15
-39 -2 -10 -6 -28 -9 -40 -2 -12 -10 -27 -16 -35 -7 -8 -9 -17 -6 -21 4 -3 3
-11 -2 -17 -5 -6 -13 -27 -19 -46 -6 -19 -58 -174 -117 -345 -85 -249 -164
-481 -241 -715 -3 -8 -5 -16 -4 -18 0 -1 -6 -15 -14 -31 -9 -16 -12 -31 -9
-35 4 -3 0 -6 -7 -6 -7 0 -11 -3 -7 -6 5 -5 -11 -57 -69 -224 -3 -8 -5 -15 -4
-15 2 0 -11 -36 -36 -100 -4 -11 -8 -22 -9 -25 -6 -23 -18 -58 -25 -75 -17
-41 -93 -271 -93 -282 0 -7 -4 -13 -9 -13 -4 0 -7 -3 -6 -7 3 -9 -43 -153 -53
-168 -4 -5 -10 -26 -14 -45 -4 -19 -13 -45 -21 -57 -8 -13 -12 -23 -10 -23 3
0 -4 -26 -15 -57 -11 -32 -22 -66 -24 -76 -2 -9 -7 -23 -12 -30 -4 -6 -8 -16
-9 -22 -2 -12 -52 -163 -61 -185 -4 -8 -7 -18 -8 -22 -2 -5 -3 -9 -4 -10 -2
-4 -242 -711 -245 -723 -2 -5 -6 -17 -9 -25 -3 -8 -15 -44 -27 -80 -76 -226
-271 -798 -277 -810 -3 -8 -5 -19 -4 -24 1 -4 -2 -13 -7 -20 -5 -6 -18 -38
-28 -71 -22 -74 -19 -66 -28 -90 -4 -11 -12 -33 -18 -50 -5 -16 -14 -39 -18
-50 -4 -11 -18 -53 -31 -93 -13 -39 -26 -72 -29 -72 -4 0 -119 329 -134 385
-2 6 -6 18 -10 27 -4 9 -9 25 -11 35 -2 10 -4 19 -5 21 -2 1 -3 5 -5 10 -1 4
-5 15 -9 24 -4 9 -9 22 -10 30 -2 7 -6 20 -9 28 -4 8 -13 38 -22 65 -9 28 -20
59 -25 70 -5 11 -16 43 -24 70 -8 28 -58 176 -111 330 -53 154 -98 285 -99
290 -1 6 -4 15 -7 20 -3 6 -11 30 -19 55 -7 25 -19 59 -26 77 -8 17 -14 37
-14 45 0 8 -3 18 -7 22 -5 4 -8 11 -9 14 -2 16 -17 68 -23 77 -3 6 -6 12 -6
15 -1 3 -18 57 -40 120 -21 63 -40 120 -41 125 -1 6 -27 80 -57 167 -31 86
-53 159 -50 162 4 3 2 6 -4 6 -6 0 -13 12 -16 28 -5 23 -35 114 -54 162 -3 8
-7 22 -9 30 -1 8 -19 62 -39 120 -21 58 -37 111 -38 118 0 6 -4 12 -9 12 -4 0
-8 11 -8 24 0 14 -4 27 -9 30 -4 3 -12 20 -16 38 -4 18 -9 38 -11 43 -5 15
-130 378 -137 395 -3 8 -20 60 -37 115 -18 55 -36 109 -40 120 -24 60 -30 82
-32 103 -1 6 -5 12 -10 12 -4 0 -7 3 -7 8 1 4 0 9 -1 12 -1 3 -3 13 -5 23 -2
10 -7 26 -11 35 -4 9 -8 19 -9 22 -1 3 -4 12 -7 20 -3 8 -10 31 -16 50 -12 42
-71 217 -83 245 -4 11 -31 90 -59 175 -29 85 -56 164 -61 175 -6 12 -11 28
-13 38 -1 9 -5 20 -9 23 -4 4 -7 16 -7 26 0 10 -4 26 -10 36 -14 26 -70 197
-70 216 0 9 -4 16 -9 16 -5 0 -12 15 -16 33 -4 17 -8 34 -9 37 -8 24 -29 88
-33 100 -15 41 -175 507 -178 520 -2 8 -13 41 -24 72 -12 32 -21 63 -21 70 0
11 357 13 1853 11 1018 -1 1875 -2 1904 -3z m2605 0 c26 0 20 -10 -105 -177
-73 -98 -153 -205 -177 -238 -24 -33 -48 -64 -52 -70 -5 -5 -36 -46 -69 -90
-32 -44 -65 -87 -72 -95 -6 -8 -20 -28 -30 -43 -10 -16 -27 -38 -37 -50 -11
-12 -18 -24 -17 -27 1 -3 -8 -17 -21 -30 -20 -22 -136 -175 -182 -240 -8 -12
-23 -31 -32 -43 -10 -12 -49 -65 -87 -117 -38 -52 -76 -103 -85 -112 -8 -9
-23 -29 -33 -45 -31 -48 -115 -158 -127 -165 -6 -4 -8 -8 -3 -8 4 0 -1 -9 -10
-19 -10 -10 -40 -50 -68 -87 -27 -38 -53 -71 -58 -72 -4 -2 -5 -8 -1 -13 3 -5
1 -9 -3 -9 -5 0 -26 -25 -48 -56 -22 -30 -50 -67 -62 -82 -13 -15 -23 -30 -23
-34 0 -4 -6 -13 -13 -20 -7 -7 -26 -31 -42 -53 -17 -22 -34 -44 -38 -50 -4 -5
-26 -35 -48 -65 -23 -30 -50 -66 -60 -80 -10 -14 -31 -41 -46 -61 -16 -20 -35
-47 -43 -59 -8 -12 -20 -28 -25 -34 -6 -6 -26 -33 -45 -61 -19 -27 -40 -55
-46 -61 -6 -7 -58 -76 -115 -155 -57 -78 -112 -151 -121 -161 -10 -10 -16 -18
-13 -18 3 0 -4 -10 -15 -22 -12 -13 -29 -35 -38 -50 -9 -16 -20 -28 -24 -28
-4 0 -8 -5 -8 -12 0 -6 -7 -18 -15 -27 -29 -30 -125 -161 -125 -170 0 -5 -3
-11 -8 -13 -9 -4 -112 -136 -112 -143 0 -4 -6 -12 -12 -19 -7 -7 -21 -24 -31
-37 -85 -118 -112 -155 -117 -159 -3 -3 -17 -21 -30 -40 -14 -19 -30 -42 -37
-50 -7 -8 -60 -80 -120 -160 -59 -80 -111 -146 -115 -148 -4 -2 -8 -8 -8 -14
0 -5 -6 -15 -12 -22 -7 -8 -20 -24 -28 -36 -13 -20 -57 -79 -78 -105 -4 -5
-59 -80 -122 -165 -124 -167 -129 -174 -147 -195 -7 -7 -13 -18 -13 -23 0 -6
-3 -12 -7 -14 -7 -3 -76 -91 -128 -164 -11 -15 -30 -40 -42 -55 -13 -15 -23
-32 -23 -38 0 -6 -4 -11 -9 -11 -4 0 -21 -18 -35 -41 -15 -22 -29 -39 -31 -37
-2 2 18 66 44 143 26 77 70 205 97 285 27 80 48 148 46 153 -1 4 3 7 8 7 6 0
10 8 10 18 0 9 9 42 21 72 12 30 22 62 24 70 2 8 28 86 58 173 30 86 53 157
51 157 -3 0 3 11 11 24 9 13 15 28 14 32 -1 5 0 16 4 24 20 53 42 116 42 122
0 3 3 10 8 14 4 4 7 15 7 25 0 9 9 39 20 65 11 26 22 54 24 63 2 9 6 25 10 36
29 75 36 96 36 100 1 6 -2 -2 53 160 46 135 60 175 63 188 1 4 3 9 4 12 1 3 3
8 5 13 1 4 5 15 9 24 4 9 9 22 10 30 2 7 6 20 9 28 3 8 13 38 22 65 9 28 21
58 26 68 5 10 7 22 4 27 -4 6 -2 10 2 10 5 0 9 8 10 18 1 9 7 31 13 47 18 45
149 423 165 475 10 36 57 173 91 270 3 8 5 15 4 15 -1 0 8 25 20 55 12 30 22
57 22 60 0 3 5 16 10 30 5 14 10 33 11 43 1 9 5 17 10 17 4 0 7 6 5 13 -1 6 3
22 10 35 7 12 10 22 6 22 -3 0 -1 7 6 15 7 8 9 15 5 15 -4 0 -2 7 5 15 7 8 10
15 6 15 -4 0 1 14 10 32 9 17 17 40 19 52 2 12 42 134 90 271 132 381 138 399
138 413 0 6 3 12 7 12 4 0 7 6 7 13 0 6 12 48 27 92 36 106 36 105 33 109 -1
1 4 10 12 19 7 10 10 17 6 17 -4 0 0 11 9 25 9 14 14 25 12 25 -3 0 22 78 55
172 32 95 59 174 59 175 0 7 1533 9 1922 3z"/>
</g>
</svg>
