<?xml version="1.0" standalone="no"?>
<!DOCTYPE svg PUBLIC "-//W3C//DTD SVG 20010904//EN"
 "http://www.w3.org/TR/2001/REC-SVG-20010904/DTD/svg10.dtd">
<svg version="1.0" xmlns="http://www.w3.org/2000/svg"
 width="149.000000pt" height="149.000000pt" viewBox="0 0 149.000000 149.000000"
 preserveAspectRatio="xMidYMid meet">
<metadata>
Created by potrace 1.14, written by Peter Selinger 2001-2017
</metadata>
<g transform="translate(0.000000,149.000000) scale(0.100000,-0.100000)"
fill="#000000" stroke="none">
<path d="M530 1268 c-66 -8 -191 -48 -213 -67 -9 -9 138 -57 203 -67 25 -4
132 -8 238 -9 208 -2 289 7 407 48 l70 24 -46 20 c-58 26 -104 40 -154 48 -67
11 -425 13 -505 3z"/>
<path d="M250 1164 c-29 -12 -133 -85 -150 -103 -3 -3 -22 -21 -43 -39 l-38
-33 163 -78 c212 -102 201 -100 227 -56 24 41 81 198 81 224 0 29 -33 50 -116
76 -92 29 -80 28 -124 9z"/>
<path d="M1155 1151 c-33 -9 -70 -24 -83 -32 -36 -22 -28 -56 56 -241 14 -32
29 -58 34 -58 4 0 60 25 123 55 108 52 142 64 131 48 -2 -5 -48 -30 -101 -58
-148 -76 -170 -102 -329 -385 -48 -85 -92 -159 -98 -165 -10 -10 8 24 157 308
43 84 74 152 69 157 -5 5 -34 11 -64 15 -55 5 -479 6 -535 1 -16 -2 -42 -4
-57 -5 -37 -1 -36 -18 6 -94 18 -34 52 -98 76 -142 64 -119 149 -264 183 -312
27 -38 35 -43 69 -43 68 0 75 7 298 259 36 41 70 79 75 85 6 6 30 36 55 66 25
30 50 60 55 66 6 6 27 31 46 54 18 23 39 47 44 54 6 6 36 44 68 85 77 99 77
115 -8 196 -102 99 -160 117 -270 86z"/>
<path d="M512 1070 c-8 -19 -29 -75 -47 -125 -18 -49 -36 -98 -40 -108 -7 -18
6 -18 323 -15 295 3 333 5 348 20 16 16 15 23 -21 117 -20 55 -46 108 -57 118
-18 16 -46 19 -256 23 l-235 5 -15 -35z"/>
<path d="M67 913 c8 -21 33 -54 122 -152 36 -41 73 -82 82 -93 9 -10 50 -55
92 -101 230 -252 330 -357 335 -353 4 4 -52 113 -130 256 -14 25 -42 77 -63
115 -108 200 -135 226 -308 300 -117 50 -140 55 -130 28z"/>
</g>
</svg>
